<svg width="263" height="34" viewBox="0 0 263 34" fill="none" xmlns="http://www.w3.org/2000/svg">
<g clip-path="url(#clip0_3_7)">
<path d="M251.53 31V26.644H255.558V31H251.53Z" fill="#F13024"/>
<path d="M2.35795 30V26.733L13.608 12.6278V12.4432H2.72727V8.18182H19.9006V11.6903L9.19034 25.554V25.7386H20.2699V30H2.35795ZM31.3814 30.4403C29.9988 30.4403 28.7536 30.1941 27.6456 29.7017C26.5471 29.1998 25.6759 28.4612 25.032 27.4858C24.3975 26.5104 24.0803 25.3078 24.0803 23.8778C24.0803 22.6468 24.3075 21.6288 24.7621 20.8239C25.2166 20.0189 25.8369 19.375 26.6229 18.892C27.4089 18.4091 28.2943 18.0445 29.2791 17.7983C30.2734 17.5426 31.3009 17.358 32.3615 17.2443C33.6399 17.1117 34.6768 16.9934 35.4723 16.8892C36.2678 16.7756 36.8454 16.6051 37.2053 16.3778C37.5746 16.1411 37.7592 15.7765 37.7592 15.2841V15.1989C37.7592 14.1288 37.442 13.3002 36.8075 12.7131C36.1731 12.1259 35.2592 11.8324 34.0661 11.8324C32.8066 11.8324 31.8075 12.107 31.0689 12.6562C30.3397 13.2055 29.8473 13.8542 29.5916 14.6023L24.7905 13.9205C25.1693 12.5947 25.7943 11.4867 26.6655 10.5966C27.5367 9.69697 28.602 9.02462 29.8615 8.57955C31.121 8.125 32.513 7.89773 34.0376 7.89773C35.0888 7.89773 36.1352 8.02083 37.1768 8.26705C38.2185 8.51326 39.1702 8.92045 40.032 9.48864C40.8937 10.0473 41.585 10.8097 42.1058 11.7756C42.6361 12.7415 42.9013 13.9489 42.9013 15.3977V30H37.9581V27.0028H37.7876C37.4751 27.6089 37.0348 28.1771 36.4666 28.7074C35.9079 29.2282 35.2024 29.6496 34.3501 29.9716C33.5073 30.2841 32.5178 30.4403 31.3814 30.4403ZM32.7166 26.6619C33.7488 26.6619 34.6437 26.4583 35.4013 26.0511C36.1589 25.6345 36.7412 25.0852 37.1484 24.4034C37.5651 23.7216 37.7734 22.9782 37.7734 22.1733V19.6023C37.6125 19.7348 37.3378 19.858 36.9496 19.9716C36.5708 20.0852 36.1446 20.1847 35.6712 20.2699C35.1977 20.3551 34.7289 20.4309 34.2649 20.4972C33.8009 20.5634 33.3984 20.6203 33.0575 20.6676C32.2905 20.7718 31.6039 20.9422 30.9979 21.179C30.3918 21.4157 29.9136 21.7472 29.5632 22.1733C29.2128 22.59 29.0376 23.1297 29.0376 23.7926C29.0376 24.7396 29.3833 25.4545 30.0746 25.9375C30.7659 26.4205 31.6465 26.6619 32.7166 26.6619ZM48.0717 30V8.18182H53.2138V30H48.0717ZM50.657 5.08523C49.8426 5.08523 49.1418 4.81534 48.5547 4.27557C47.9676 3.72632 47.674 3.06818 47.674 2.30114C47.674 1.52462 47.9676 0.866476 48.5547 0.326703C49.1418 -0.222539 49.8426 -0.49716 50.657 -0.49716C51.4808 -0.49716 52.1816 -0.222539 52.7592 0.326703C53.3464 0.866476 53.6399 1.52462 53.6399 2.30114C53.6399 3.06818 53.3464 3.72632 52.7592 4.27557C52.1816 4.81534 51.4808 5.08523 50.657 5.08523ZM63.6435 17.2159V30H58.5014V8.18182H63.4162V11.8892H63.6719C64.1738 10.6676 64.974 9.69697 66.0724 8.97727C67.1804 8.25758 68.5488 7.89773 70.1776 7.89773C71.6832 7.89773 72.9948 8.2197 74.1122 8.86364C75.2391 9.50758 76.1103 10.4403 76.7259 11.6619C77.3509 12.8835 77.6586 14.3655 77.6491 16.108V30H72.5071V16.9034C72.5071 15.4451 72.1283 14.304 71.3707 13.4801C70.6226 12.6562 69.5857 12.2443 68.2599 12.2443C67.3603 12.2443 66.5601 12.4432 65.8594 12.8409C65.1681 13.2292 64.6236 13.7926 64.2259 14.5312C63.8376 15.2699 63.6435 16.1648 63.6435 17.2159Z" fill="white"/>
<path d="M98.4472 30.4972C97.1309 30.4972 95.9283 30.2415 94.8392 29.7301C93.7502 29.2093 92.8838 28.4612 92.2398 27.4858C91.5959 26.5009 91.2739 25.3078 91.2739 23.9062C91.2739 22.8267 91.4775 21.9176 91.8847 21.179C92.2919 20.4403 92.8695 19.8343 93.6177 19.3608C94.3658 18.8873 95.2512 18.5133 96.2739 18.2386C97.2966 17.964 98.4235 17.7509 99.6546 17.5994C100.876 17.4479 101.908 17.3153 102.751 17.2017C103.603 17.0881 104.252 16.9081 104.697 16.6619C105.142 16.4157 105.365 16.018 105.365 15.4688V14.9574C105.365 13.4706 104.92 12.3011 104.03 11.4489C103.149 10.5871 101.88 10.1562 100.223 10.1562C98.6508 10.1562 97.3677 10.5019 96.3733 11.1932C95.3885 11.8845 94.6972 12.6989 94.2995 13.6364L91.8989 12.7699C92.3913 11.5767 93.0731 10.625 93.9444 9.91477C94.8156 9.19508 95.7909 8.67898 96.8705 8.36648C97.95 8.04451 99.0438 7.88352 100.152 7.88352C100.985 7.88352 101.852 7.99242 102.751 8.21023C103.66 8.42803 104.503 8.80682 105.28 9.34659C106.056 9.87689 106.686 10.6203 107.169 11.5767C107.652 12.5237 107.893 13.7263 107.893 15.1847V30H105.365V26.5483H105.209C104.906 27.1922 104.456 27.8172 103.859 28.4233C103.263 29.0294 102.514 29.5265 101.615 29.9148C100.715 30.303 99.6593 30.4972 98.4472 30.4972ZM98.7881 28.1818C100.133 28.1818 101.298 27.8835 102.282 27.2869C103.267 26.6903 104.025 25.8996 104.555 24.9148C105.095 23.9205 105.365 22.8267 105.365 21.6335V18.4801C105.175 18.66 104.858 18.821 104.413 18.9631C103.978 19.1051 103.471 19.233 102.893 19.3466C102.325 19.4508 101.757 19.5407 101.189 19.6165C100.62 19.6922 100.109 19.7585 99.6546 19.8153C98.4235 19.9669 97.3724 20.2036 96.5012 20.5256C95.63 20.8475 94.9624 21.2926 94.4983 21.8608C94.0343 22.4195 93.8023 23.1392 93.8023 24.0199C93.8023 25.3456 94.2758 26.3731 95.2228 27.1023C96.1697 27.822 97.3582 28.1818 98.7881 28.1818ZM115.145 30V0.90909H117.687V12.3438H117.915C118.199 11.6903 118.606 11.018 119.136 10.3267C119.676 9.63542 120.381 9.05777 121.253 8.59375C122.133 8.12027 123.241 7.88352 124.576 7.88352C126.366 7.88352 127.938 8.35701 129.292 9.30398C130.647 10.2415 131.702 11.5578 132.46 13.2528C133.218 14.9384 133.596 16.9034 133.596 19.1477C133.596 21.4015 133.218 23.3759 132.46 25.071C131.712 26.7661 130.661 28.0871 129.307 29.0341C127.962 29.9811 126.399 30.4545 124.619 30.4545C123.293 30.4545 122.185 30.2178 121.295 29.7443C120.415 29.2708 119.704 28.6884 119.165 27.9972C118.625 27.2964 118.208 26.6146 117.915 25.9517H117.602V30H115.145ZM117.645 19.1051C117.645 20.8665 117.905 22.429 118.426 23.7926C118.956 25.1468 119.714 26.2121 120.699 26.9886C121.693 27.7557 122.896 28.1392 124.307 28.1392C125.755 28.1392 126.982 27.7415 127.986 26.946C128.989 26.1411 129.752 25.0568 130.272 23.6932C130.793 22.3295 131.054 20.8002 131.054 19.1051C131.054 17.429 130.793 15.9186 130.272 14.5739C129.761 13.2292 129.004 12.1638 128 11.3778C126.996 10.5824 125.765 10.1847 124.307 10.1847C122.886 10.1847 121.679 10.5682 120.684 11.3352C119.7 12.0928 118.947 13.1439 118.426 14.4886C117.905 15.8239 117.645 17.3627 117.645 19.1051ZM147.005 30.4545C145.216 30.4545 143.648 29.9811 142.304 29.0341C140.959 28.0871 139.908 26.7661 139.15 25.071C138.402 23.3759 138.028 21.4015 138.028 19.1477C138.028 16.9034 138.402 14.9384 139.15 13.2528C139.908 11.5578 140.964 10.2415 142.318 9.30398C143.672 8.35701 145.249 7.88352 147.048 7.88352C148.374 7.88352 149.477 8.12027 150.358 8.59375C151.238 9.05777 151.944 9.63542 152.474 10.3267C153.004 11.018 153.416 11.6903 153.71 12.3438H153.937V0.90909H156.48V30H154.008V25.9517H153.71C153.416 26.6146 153 27.2964 152.46 27.9972C151.92 28.6884 151.205 29.2708 150.315 29.7443C149.434 30.2178 148.331 30.4545 147.005 30.4545ZM147.304 28.1392C148.715 28.1392 149.917 27.7557 150.912 26.9886C151.906 26.2121 152.664 25.1468 153.184 23.7926C153.715 22.429 153.98 20.8665 153.98 19.1051C153.98 17.3627 153.719 15.8239 153.199 14.4886C152.678 13.1439 151.92 12.0928 150.926 11.3352C149.932 10.5682 148.724 10.1847 147.304 10.1847C145.845 10.1847 144.614 10.5824 143.611 11.3778C142.616 12.1638 141.859 13.2292 141.338 14.5739C140.826 15.9186 140.571 17.429 140.571 19.1051C140.571 20.8002 140.831 22.3295 141.352 23.6932C141.873 25.0568 142.63 26.1411 143.625 26.946C144.629 27.7415 145.855 28.1392 147.304 28.1392ZM177.545 21.6619V8.18182H180.074V30H177.545V26.3778H177.346C176.835 27.4953 176.025 28.428 174.917 29.1761C173.809 29.9148 172.455 30.2841 170.855 30.2841C169.463 30.2841 168.227 29.9811 167.147 29.375C166.068 28.7595 165.22 27.8598 164.605 26.6761C163.989 25.4924 163.682 24.0388 163.682 22.3153V8.18182H166.21V22.1591C166.21 23.8636 166.712 25.2367 167.716 26.2784C168.719 27.3106 170.007 27.8267 171.579 27.8267C172.564 27.8267 173.511 27.59 174.42 27.1165C175.329 26.643 176.077 25.9517 176.665 25.0426C177.252 24.1241 177.545 22.9972 177.545 21.6619ZM189.296 0.90909V30H186.768V0.90909H189.296ZM198.515 0.90909V30H195.986V0.90909H198.515ZM211.299 30.4972C209.982 30.4972 208.78 30.2415 207.691 29.7301C206.602 29.2093 205.735 28.4612 205.091 27.4858C204.447 26.5009 204.125 25.3078 204.125 23.9062C204.125 22.8267 204.329 21.9176 204.736 21.179C205.143 20.4403 205.721 19.8343 206.469 19.3608C207.217 18.8873 208.103 18.5133 209.125 18.2386C210.148 17.964 211.275 17.7509 212.506 17.5994C213.728 17.4479 214.76 17.3153 215.603 17.2017C216.455 17.0881 217.104 16.9081 217.549 16.6619C217.994 16.4157 218.216 16.018 218.216 15.4688V14.9574C218.216 13.4706 217.771 12.3011 216.881 11.4489C216 10.5871 214.732 10.1562 213.074 10.1562C211.502 10.1562 210.219 10.5019 209.225 11.1932C208.24 11.8845 207.549 12.6989 207.151 13.6364L204.75 12.7699C205.243 11.5767 205.925 10.625 206.796 9.91477C207.667 9.19508 208.643 8.67898 209.722 8.36648C210.802 8.04451 211.895 7.88352 213.003 7.88352C213.837 7.88352 214.703 7.99242 215.603 8.21023C216.512 8.42803 217.355 8.80682 218.131 9.34659C218.908 9.87689 219.537 10.6203 220.02 11.5767C220.503 12.5237 220.745 13.7263 220.745 15.1847V30H218.216V26.5483H218.06C217.757 27.1922 217.307 27.8172 216.711 28.4233C216.114 29.0294 215.366 29.5265 214.466 29.9148C213.567 30.303 212.511 30.4972 211.299 30.4972ZM211.64 28.1818C212.984 28.1818 214.149 27.8835 215.134 27.2869C216.119 26.6903 216.876 25.8996 217.407 24.9148C217.946 23.9205 218.216 22.8267 218.216 21.6335V18.4801C218.027 18.66 217.71 18.821 217.265 18.9631C216.829 19.1051 216.322 19.233 215.745 19.3466C215.177 19.4508 214.608 19.5407 214.04 19.6165C213.472 19.6922 212.961 19.7585 212.506 19.8153C211.275 19.9669 210.224 20.2036 209.353 20.5256C208.482 20.8475 207.814 21.2926 207.35 21.8608C206.886 22.4195 206.654 23.1392 206.654 24.0199C206.654 25.3456 207.127 26.3731 208.074 27.1023C209.021 27.822 210.21 28.1818 211.64 28.1818ZM229.999 16.3636V30H227.471V0.90909H229.999V11.6051H230.226C230.738 10.4782 231.528 9.5786 232.598 8.90625C233.678 8.2339 235.042 7.89773 236.689 7.89773C238.167 7.89773 239.464 8.20076 240.581 8.80682C241.699 9.41288 242.57 10.3078 243.195 11.4915C243.82 12.6752 244.133 14.1335 244.133 15.8665V30H241.59V16.0227C241.59 14.2235 241.088 12.8078 240.084 11.7756C239.09 10.7339 237.745 10.2131 236.05 10.2131C234.885 10.2131 233.848 10.4593 232.939 10.9517C232.03 11.4441 231.311 12.1544 230.78 13.0824C230.259 14.0009 229.999 15.0947 229.999 16.3636Z" fill="white"/>
</g>
<defs>
<clipPath id="clip0_3_7">
<rect width="263" height="34" fill="white"/>
</clipPath>
</defs>
</svg>
